<svg version="1.1" xmlns="http://www.w3.org/2000/svg" xmlns:xlink="http://www.w3.org/1999/xlink" width="65" height="56" viewBox="0,0,256,220.55"><g fill="#000000" fill-rule="nonzero" stroke="none" stroke-width="1" stroke-linecap="butt" stroke-linejoin="miter" stroke-miterlimit="10" stroke-dasharray="" stroke-dashoffset="0" font-family="none" font-weight="none" font-size="none" text-anchor="none" style="mix-blend-mode: normal"><g transform="translate(0.10002,-0.00192) scale(3.93846,3.93846)"><path d="M4.22461,38l15.99999,-24h23.5l-12,13l-6,1.5h4.5h15.5l-43.99999,27.5l14.99999,-20z"></path><path d="M0.22461,0l43.49999,14l-22,7z"></path><path d="M35.7246,26l11,-11l18,7z"></path><path d="M27.6549,5.41157c0.3399,-0.99406 0.8723,-1.91144 1.5668,-2.69976c0.6944,-0.78831 1.5374,-1.43212 2.4806,-1.89468c0.9433,-0.46255 1.9684,-0.73478 3.0169,-0.80115c1.0485,-0.06637 2.0998,0.07442 3.0938,0.41434c0.9941,0.33992 1.9115,0.8723 2.6998,1.56676c0.7883,0.69445 1.4321,1.53738 1.8947,2.48064c0.4625,0.94327 0.7348,1.96841 0.8011,3.01688c0.0664,1.04848 -0.0744,2.09976 -0.4143,3.0938l-7.5697,-2.5884z"></path></g></g></svg>